PathFileType	4	(X/Y/Z)	C:\Users\WrightLab\Desktop\Jo\P1_boxCal4.trc
DataRate	CameraRate	NumFrames	NumMarkers	Units	OrigDataRate	OrigDataStartFrame	OrigNumFrames
100.00	100.00	      50	19	mm	100.00	754	      1205
Frame#	Time	Headset_Front			Headset_Back			Headset_Left			Headset_Right			Left_Shoulder			Right_Shoulder			Sternum			C7			Left Elbow			Right Elbow			Left Wrist			Right Wrist			Left ASIS			Right ASIS			S2			Left Knee			Right Knee			Left Ankle			Right Ankle			
		X1	Y1	Z1	X2	Y2	Z2	X3	Y3	Z3	X4	Y4	Z4	X5	Y5	Z5	X6	Y6	Z6	X7	Y7	Z7	X8	Y8	Z8	X9	Y9	Z9	X10	Y10	Z10	X11	Y11	Z11	X12	Y12	Z12	X13	Y13	Z13	X14	Y14	Z14	X15	Y15	Z15	X16	Y16	Z16	X17	Y17	Z17	X18	Y18	Z18	X19	Y19	Z19	

754	7.530							-775.42456	507.57272	2396.02246	-286.26102	842.83075	2360.64917							-942.69806	827.65894	2336.75049	149.98901	586.84625	1630.24146													-446.01392	509.50183	2435.08545																			
755	7.540							-775.17914	507.42581	2396.67529	-288.06378	841.15033	2359.10522							-943.12402	828.12445	2333.93115				-461.81815	145.45776	2480.58423										-445.99167	509.40887	2435.02954																			
756	7.550							-775.00098	507.21240	2397.22632	-288.56168	840.32428	2358.41724							-943.92090	828.31287	2331.41162	-461.81509	145.46178	2480.58008													-445.74051	509.44406	2434.74512																			
757	7.560							-775.07629	507.22925	2397.85815	-289.11856	839.50891	2358.17725							-944.95782	828.56647	2328.06982				-461.82181	145.45657	2480.58252										-445.75308	509.32977	2434.69360																			
758	7.570							-775.34766	507.03418	2398.31274	-287.87576	841.09607	2360.73169							-946.04486	828.97943	2325.17480	-461.81631	145.46582	2480.57129													-445.74677	509.16046	2434.60645																			
759	7.580							-775.42883	506.94678	2398.66675	-288.44327	840.55676	2361.03052							-946.97589	829.32092	2323.17358				-461.61563	145.46176	2480.40991										-445.56223	508.28522	2434.31152																			
760	7.590							-775.59235	506.95703	2399.08936	-289.14838	839.66803	2361.54517							-947.47382	829.70410	2320.63159				-461.51254	145.61919	2480.15967										-445.59427	508.24399	2434.30469																			
761	7.600							-775.59534	506.84668	2399.26050	-290.00079	839.16833	2361.94385							-947.96558	830.14008	2317.55884	-156.65288	1118.49561	1368.00183	-461.49869	145.64188	2480.13306										-445.44946	508.58658	2433.40991																			
762	7.610							-775.67267	506.78812	2399.44604	-290.63232	839.30609	2362.64014							-948.52979	830.59198	2315.80615				-461.28174	145.76573	2479.84277										-445.26321	508.64920	2433.14478																			
763	7.620							-775.62421	506.80450	2399.67310	-290.88556	839.58838	2365.06372							-949.30676	830.70227	2315.14990				-461.26935	145.78046	2479.82910										-445.07681	508.78845	2432.70703																			
764	7.630							-775.62634	506.81912	2399.92822	-291.83044	839.32831	2365.31909							-949.74969	830.98486	2313.97925				-461.04715	145.89542	2479.54443										-444.94818	508.94608	2432.46582																			
765	7.640							-775.46600	506.87329	2400.07666	-292.04059	839.32147	2366.31738							-950.12683	831.34979	2313.30518	-163.78752	1120.91919	1372.08325	-460.88705	146.16362	2479.14380	-872.69543	498.75735	2931.12354							-444.88834	509.01132	2432.47266																			
766	7.650							-775.45917	506.91006	2400.24048	-292.95206	836.74060	2364.05688							-950.35059	831.41217	2313.05957				-460.85440	146.19965	2479.11279										-445.04449	509.95023	2432.36938																			
767	7.660							-775.40552	506.82907	2400.23999	-292.97418	836.70227	2365.02075							-950.43140	831.26978	2313.19360				-460.83765	146.21793	2479.09741										-445.21658	509.28363	2431.17651																			
768	7.670							-775.47382	506.99670	2400.47559	-292.68896	837.00537	2365.75513							-950.23633	831.05420	2313.92676				-460.82794	146.23248	2479.08105										-445.33014	509.35324	2431.08130																			
769	7.680							-775.50220	507.17700	2400.76318	-292.59134	837.51453	2367.18188							-950.17346	830.77002	2314.94409	-743.31519	792.96991	2045.00732	-460.81204	146.25519	2479.05640										-445.60959	509.84641	2431.08398																			
770	7.690							-775.66577	507.17648	2400.73584	-292.25204	837.95972	2368.01489							-950.02344	830.55701	2315.96606				-460.81366	146.26019	2479.04541										-445.86868	509.81030	2431.11938																			
771	7.700							-775.95453	507.21942	2400.75854	-291.44952	839.65088	2370.80762							-949.44220	830.11200	2316.64282				-460.81009	146.26967	2479.03174										-446.24130	509.45755	2430.31201																			
772	7.710							-775.97809	507.23840	2400.67139	-291.23474	839.61401	2371.86646							-949.11725	829.42975	2319.15308				-460.81064	146.27573	2479.02002										-446.42090	509.41156	2430.36646																			
773	7.720							-776.25311	507.23648	2400.50293	-291.01138	839.84796	2372.60962							-948.99200	828.75092	2321.31250	-741.10040	791.61401	2050.63403	-460.81146	146.27728	2479.01611	-865.95587	493.65454	2929.20630							-446.92416	509.81906	2428.62720																			
774	7.730							-776.43622	507.15247	2400.13232	-290.51120	840.02148	2373.10205							-948.59454	827.96588	2322.84204				-460.80966	146.28926	2478.99585										-447.13034	509.74277	2428.55518																			
775	7.740							-776.77747	507.25162	2399.91479	-289.78796	840.34894	2374.19751							-948.54614	827.00525	2326.17017				-460.81976	146.28912	2478.98511										-447.79349	510.12357	2427.30347																			
776	7.750							-777.23138	507.28088	2399.78589	-289.32614	840.55334	2374.87305							-948.25854	826.44055	2328.19678				-460.82483	146.28976	2478.97827										-447.99005	510.04333	2427.34790																			
777	7.760							-777.59637	507.17792	2399.53198	-288.71072	841.18878	2375.89746							-948.22339	825.50214	2331.67139	-168.20981	1118.67737	1377.50659	-460.82172	146.29996	2478.96289										-448.13385	509.99353	2427.38501																			
778	7.770							-778.21802	507.13040	2399.38550	-288.12204	841.80438	2376.75439							-947.92139	824.73199	2334.36157				-460.83850	146.29288	2478.95752										-448.53125	509.56155	2426.54834																			
779	7.780							-778.54504	506.97321	2399.04761	-287.47427	842.24420	2377.08813							-948.03516	823.92108	2337.25977				-461.46597	146.32520	2478.46265										-448.63608	509.53769	2426.52344																			
780	7.790							-778.92853	506.97382	2398.90601	-288.49615	839.51019	2374.25293							-947.85712	823.28754	2340.85425				-460.84052	146.29964	2478.94287										-448.76236	509.55765	2426.58765																			
781	7.800							-779.29321	506.95016	2398.81787	-288.00784	839.88483	2375.20410							-947.68274	822.57178	2343.70044				-461.47223	146.32050	2478.44653										-449.22186	509.95834	2426.74268																			
782	7.810							-779.56311	506.83972	2398.58350	-287.57275	840.51599	2376.24561							-947.78369	821.80194	2346.94922				-461.49951	146.26215	2478.39697										-449.56546	510.00082	2427.07690																			
783	7.820							-779.63306	506.89749	2398.54297	-286.95737	841.06732	2376.98779							-947.77722	821.37439	2349.41772				-461.50763	146.24548	2478.38184										-449.99844	510.36880	2427.33228																			
784	7.830							-779.85028	506.82657	2398.43530	-286.64218	841.59943	2377.70703							-947.94830	820.70850	2353.21094				-461.53702	146.18089	2478.32935										-450.11441	510.50156	2427.29443																			
785	7.840							-780.08502	506.86816	2398.44556	-285.85385	843.47040	2379.91577							-947.84302	820.49048	2355.48120	-756.61798	820.79596	2127.93579	-461.77112	146.56334	2478.66235										-450.27606	510.60614	2427.23486																			
786	7.850							-780.03949	506.86261	2398.38794	-285.42233	844.12897	2380.41992							-948.43274	820.15839	2358.57910				-462.33694	147.43741	2479.63525										-450.37704	510.59003	2427.27002																			
787	7.860							-780.46143	506.84042	2398.53857	-284.93619	844.51599	2380.39111							-948.89276	819.85724	2361.38818				-461.90103	149.07339	2481.35596										-450.56171	510.54208	2427.50928																			
788	7.870							-780.67065	506.90781	2398.69409	-284.01007	845.02966	2380.57104							-949.20410	819.94830	2363.09082				-461.90720	149.06718	2481.36060										-450.63010	510.63144	2427.51514																			
789	7.880							-780.96344	506.93097	2398.92310	-284.77283	842.60638	2377.41992							-950.05280	819.78235	2366.05713	-754.28070	819.74164	2133.04150	-462.36295	147.39122	2479.58276										-450.84299	510.57144	2427.57666																			
790	7.890							-781.13940	506.93402	2399.05396	-283.39661	845.95538	2380.49048							-950.75299	819.70660	2368.83423				-462.34222	147.44325	2479.61621										-450.86469	510.63489	2427.61743																			
791	7.900							-781.36688	506.89096	2399.22241	-283.05957	846.65289	2380.67554							-951.64691	819.81281	2370.39355				-462.43921	147.80214	2479.62622										-451.07867	510.55502	2427.84961																			
792	7.910							-781.67242	506.88177	2399.47363	-283.19836	846.95618	2380.82764							-952.56531	819.99115	2372.33472				-461.90320	149.22885	2481.21021										-451.15759	510.60034	2427.90601																			
793	7.920							-781.69910	506.84683	2399.70825	-283.10648	847.25519	2381.12646							-953.32135	819.93726	2374.29492				-461.94052	149.34198	2481.12256										-451.22897	510.59503	2428.18872																			
794	7.930							-781.85492	506.85303	2400.07690	-282.98737	847.29236	2381.05811							-954.44690	819.97559	2376.31299				-462.55148	148.15573	2479.65674										-451.21136	510.64886	2428.20776																			
795	7.940							-781.95020	506.76825	2400.29077	-283.13458	847.96198	2381.20068							-955.23761	820.01691	2377.29980				-461.94928	149.33667	2481.12280										-451.23605	511.21252	2429.10913																			
796	7.950							-781.93231	506.58286	2400.55957	-283.53790	847.97943	2381.06934							-956.23669	820.09167	2377.91431				-462.55887	148.13985	2479.64331										-451.29279	511.25958	2429.15698																			
797	7.960							-781.99219	506.50101	2401.02612	-283.80203	848.34741	2381.45239							-957.25177	820.06445	2378.47632				-461.95627	149.33174	2481.12427										-451.39697	511.30054	2429.16431																			
798	7.970							-781.96674	506.36566	2401.50366	-284.31174	848.50970	2381.46802							-958.56232	820.24951	2379.11475				-462.58447	148.08856	2479.59497										-451.49701	511.32410	2429.21899																			
799	7.980							-782.13959	506.22946	2401.77271	-284.86609	848.42926	2381.24902													-462.59305	148.07477	2479.57690										-451.58331	511.35724	2429.39404																			
800	7.990							-782.15955	506.17734	2402.14404	-285.55301	848.44006	2381.09277				-960.81970	820.81287	2380.29419							-462.60977	148.05087	2479.53979										-452.04697	511.26236	2429.91724																			
801	8.000							-782.23743	506.06390	2402.38135	-286.17719	848.58441	2380.90259				-962.15765	820.66809	2380.40820							-462.63000	148.00468	2479.50488										-452.05228	511.25040	2429.91357																			
802	8.010							-782.26685	506.04443	2402.75415	-287.04507	846.51050	2379.00073				-963.24390	820.71948	2380.41455							-462.64117	147.99828	2479.47485										-452.17679	511.33417	2430.05298																			
803	8.020							-782.22784	505.96683	2402.94629	-287.50934	846.64423	2379.27368				-964.59344	821.18530	2380.51733							-462.27252	147.42195	2478.59717										-452.22803	511.28378	2430.04980																			
